<svg width="220" height="148" viewBox="0 0 220 148" fill="none" xmlns="http://www.w3.org/2000/svg">
<g clip-path="url(#clip0_43_166)">
<path d="M207.188 124.417C206.618 123.643 206.258 123.653 204.576 124.486C200.903 126.323 197.239 125.886 192.975 123.057C191.474 122.064 189.973 120.526 187.42 117.34C184.418 113.558 183.837 113.022 183.197 113.29C182.754 113.496 182.374 113.815 182.096 114.213C181.805 114.739 182.366 115.653 186.099 120.397C189.833 125.141 190.673 126.134 192.555 127.285C196.799 129.935 202.404 130.094 205.757 127.682C207.649 126.273 207.989 125.529 207.188 124.417Z" fill="white"/>
<path d="M213.774 107.494C212.914 104.516 212.673 104.139 208.329 98.3623L203.775 92.407L193.436 99.6725C187.771 103.702 182.976 107.216 182.836 107.514C182.696 107.811 183.507 109.35 187.4 114.462C191.864 120.338 192.405 120.943 194.617 122.243C196.057 123.117 197.673 123.666 199.351 123.851C201.693 124.05 201.753 124 206.968 120.427C214.505 115.246 215.466 113.429 213.774 107.494Z" fill="white"/>
<path d="M214.195 98.5608L210.511 93.7568L209.51 94.4913L208.51 95.2357L211.622 99.8908C217.237 108.268 217.628 114.184 212.984 118.491C211.382 120.02 211.352 120.109 212.223 121.3L213.124 122.531L215.776 120.308C219.039 117.638 220.02 115.553 220.02 111.375C220.02 107.196 218.749 104.526 214.195 98.5608Z" fill="white"/>
<path d="M154.741 142.343C154.591 141.35 154.27 141.231 152.389 141.221C148.275 141.221 145.212 139.146 142.71 134.71C141.829 133.151 141.198 131.097 140.398 127.107C139.397 122.382 139.187 121.648 138.496 121.598C138.008 121.583 137.524 121.696 137.095 121.926C136.584 122.253 136.674 123.325 137.775 129.211C138.876 135.097 139.217 136.387 140.368 138.263C142.93 142.541 147.844 145.211 151.938 144.576C154.31 144.209 154.961 143.692 154.741 142.343Z" fill="white"/>
<path d="M168.383 130.243C168.974 127.216 168.944 126.759 167.733 119.653L166.431 112.258L153.89 114.055C146.994 115.047 141.118 116.04 140.878 116.248C140.638 116.457 140.628 118.184 141.759 124.486C143.04 131.732 143.25 132.526 144.621 134.68C145.502 136.106 146.687 137.322 148.095 138.243C150.096 139.474 150.167 139.464 156.452 138.63C165.47 137.479 167.152 136.288 168.383 130.243Z" fill="white"/>
<path d="M172.887 122.501L171.816 116.546L170.565 116.744L169.314 116.943L169.934 122.491C171.095 132.486 168.753 137.945 162.618 139.672C160.496 140.308 160.416 140.377 160.616 141.826L160.856 143.335L164.239 142.551C168.373 141.648 170.195 140.228 172.126 136.486C174.058 132.744 174.158 129.846 172.887 122.501Z" fill="white"/>
<path d="M104.835 146.065C104.835 145.072 104.535 144.903 102.683 144.596C98.6797 143.941 95.9172 141.449 94.1456 136.655C93.515 134.988 93.2148 132.854 93.0446 128.794C92.8344 123.97 92.7143 123.206 92.0437 123.057C91.5661 122.965 91.0723 122.999 90.6124 123.156C90.0619 123.414 89.9718 124.476 90.142 130.472C90.3121 136.467 90.4422 137.777 91.283 139.802C93.1447 144.427 97.5787 147.821 101.722 147.821C104.095 147.891 104.835 147.444 104.835 146.065Z" fill="white"/>
<path d="M120.209 136.218C121.27 133.33 121.31 132.873 121.21 125.667L121.11 118.114L108.439 117.965C101.432 117.906 95.5068 117.965 95.2165 118.114C94.7461 118.313 94.666 119.99 94.7962 126.382C94.9163 133.747 95.0063 134.561 96.0173 136.893C96.6615 138.44 97.6424 139.826 98.8899 140.953C100.661 142.471 100.752 142.471 107.087 142.63C116.196 142.928 118.107 142.005 120.209 136.218Z" fill="white"/>
<path d="M125.874 129.27L125.744 123.226H123.212L122.952 128.814C122.531 138.859 119.369 143.891 113.033 144.645C110.831 144.953 110.751 145.003 110.751 146.471V148L114.214 147.742C118.438 147.494 120.46 146.372 122.952 142.978C125.444 139.583 125.995 136.735 125.874 129.27Z" fill="white"/>
<path d="M8.10735 118.253C8.64784 117.449 8.51772 117.112 7.10644 115.841C4.10371 113.072 3.22291 109.519 4.40398 104.566C4.80435 102.829 5.7452 100.883 7.86713 97.4095C10.3794 93.2706 10.6997 92.5659 10.2193 92.0696C9.88555 91.7347 9.4673 91.4947 9.00817 91.3748C8.40762 91.2855 7.74702 92.1192 4.54411 97.211C1.3412 102.303 0.720632 103.464 0.30025 105.618C-0.70066 110.491 1.07095 115.752 4.52409 118.015C6.52591 119.335 7.34666 119.395 8.10735 118.253Z" fill="white"/>
<path d="M26.414 118.462C28.9063 116.635 29.1965 116.278 33.1401 110.223L37.2138 103.891L26.7343 96.8238C20.959 92.9628 16.0145 89.737 15.6342 89.7072C15.1337 89.6179 14.1328 90.9678 10.6296 96.3673C6.62601 102.571 6.25567 103.315 5.80526 105.797C5.4793 107.44 5.52373 109.135 5.93538 110.759C6.56595 112.993 6.63602 113.042 11.8307 116.645C19.3376 121.856 21.3894 122.084 26.414 118.462Z" fill="white"/>
<path d="M35.0318 115.772L38.2948 110.67L37.2338 109.975L36.1828 109.281L32.8598 113.797C26.9044 121.936 21.4695 124.387 15.7643 121.558C13.7625 120.566 13.6624 120.566 12.8416 121.826L12.0109 123.077L15.0136 124.764C18.6769 126.869 21.0191 127.047 24.9626 125.578C28.9062 124.109 30.9481 122.084 35.0318 115.772Z" fill="white"/>
<path d="M53.8189 139.405C54.1092 138.482 53.8789 138.204 52.1974 137.419C48.5141 135.603 46.6724 132.457 46.3921 127.365C46.282 125.578 46.6324 123.454 47.6733 119.524C48.8944 114.849 49.0045 114.084 48.404 113.747C47.9739 113.518 47.4907 113.405 47.0027 113.419C46.4022 113.509 46.0018 114.501 44.3903 120.278C42.7789 126.055 42.5086 127.345 42.7088 129.529C43.1192 134.491 46.3521 139.037 50.3057 140.238C52.6078 140.943 53.4085 140.715 53.8189 139.405Z" fill="white"/>
<path d="M71.435 134.471C73.2967 132.02 73.4368 131.593 75.5287 124.675L77.6406 117.459L65.5696 113.618C58.9236 111.543 53.2184 109.856 52.8881 109.916C52.3876 109.975 51.8071 111.543 50.0355 117.697C47.9736 124.764 47.8135 125.568 48.0937 128.099C48.2496 129.764 48.776 131.375 49.6351 132.814C50.8763 134.799 50.9563 134.799 56.9618 136.784C65.6097 139.712 67.6615 139.375 71.435 134.471Z" fill="white"/>
<path d="M78.9017 129.479L80.5733 123.672L79.3622 123.295L78.1511 122.928L76.2593 128.189C72.8763 137.677 68.3522 141.558 62.0765 140.437C59.8845 140.089 59.7844 140.109 59.354 141.519L58.9036 142.928L62.2866 143.702C66.4004 144.695 68.6624 144.208 72.0555 141.717C75.4486 139.226 76.8098 136.645 78.9017 129.479Z" fill="white"/>
<path d="M11.8907 12.824H26.6342C31.4318 12.824 35.0284 13.8165 37.424 15.8016C39.8195 17.7868 41.0239 20.6486 41.0372 24.3872V48.0597C41.0372 51.8513 39.8395 54.7264 37.444 56.685C35.0485 58.6437 31.4519 59.6362 26.6542 59.6627H11.8907V12.824ZM26.454 52.9431C27.7585 53.0286 29.0509 52.6483 30.0973 51.8711C30.5552 51.4214 30.9068 50.8766 31.1266 50.2758C31.3464 49.6751 31.429 49.0334 31.3685 48.3972V24.0597C31.4299 23.4219 31.3477 22.7785 31.1279 22.1761C30.908 21.5736 30.556 21.027 30.0973 20.5758C29.0509 19.7986 27.7585 19.4184 26.454 19.5039H21.5395V52.9431H26.454Z" fill="white"/>
<path d="M29.3066 8.14893H19.4777V15.4244H29.3066V8.14893Z" fill="white"/>
<path d="M29.3066 55.9902H19.4777V63.2657H29.3066V55.9902Z" fill="white"/>
<path d="M48.1138 14.2334H56.1911V59.891H48.1138V14.2334Z" fill="white"/>
<path d="M60.0546 14.2334H68.212L73.5268 49.6279H73.677L78.9618 14.2334H86.3885L78.6014 59.891H67.8717L60.0546 14.2334Z" fill="white"/>
<path d="M90.2821 14.2334H98.3594V59.891H90.2821V14.2334Z" fill="white"/>
<path d="M104.385 14.2334H116.726C120.73 14.2334 123.732 15.1896 125.734 17.1019C127.736 19.0076 128.737 21.8165 128.737 25.5088V48.6354C128.737 52.3277 127.736 55.13 125.734 57.0423C123.732 58.9547 120.73 59.9108 116.726 59.9108H104.385V14.2334ZM116.576 53.3401C117.121 53.3706 117.667 53.2942 118.182 53.1154C118.697 52.9365 119.172 52.6588 119.579 52.2979C119.974 51.832 120.272 51.2929 120.456 50.712C120.64 50.131 120.706 49.5197 120.65 48.9133V25.1813C120.764 23.9768 120.397 22.776 119.629 21.8364C119.222 21.4755 118.747 21.1977 118.232 21.0189C117.717 20.8401 117.171 20.7637 116.626 20.7942H112.512V53.3401H116.576Z" fill="white"/>
<path d="M134.212 14.2334H156.232V20.7446H142.299V32.8041H153.389V39.3252H142.299V53.3401H156.252V59.8612H134.232L134.212 14.2334Z" fill="white"/>
<path d="M178.883 14.2334H189.823L198.2 59.891H190.173L188.702 50.8289V50.958H179.463L178.002 59.891H170.505L178.883 14.2334ZM187.701 44.7346L184.097 22.1838H183.947L180.424 44.7346H187.701Z" fill="white"/>
<path d="M202.094 14.2334H210.191V59.891H202.104L202.094 14.2334Z" fill="white"/>
<path d="M208.79 3.0869L210.181 2.7395L208.429 9.57821H205.407L208.79 3.0869Z" fill="white" stroke="white" stroke-width="4" stroke-miterlimit="10"/>
<path d="M19.1475 79.4739C27.3749 95.9999 65.5496 108.506 111.411 108.506C157.273 108.506 195.488 95.9999 203.665 79.4739H19.1475Z" fill="white"/>
</g>
<defs>
<clipPath id="clip0_43_166">
<rect width="220" height="148" fill="white"/>
</clipPath>
</defs>
</svg>
